<svg xmlns="http://www.w3.org/2000/svg" width="21.461" height="30.136" viewBox="0 0 21.461 30.136"><defs><style>.a{fill:#757575;}</style></defs><path class="a" d="M28.681.163H11.436a2.188,2.188,0,0,0-2.108,2.26V10.26h21.46V2.423A2.187,2.187,0,0,0,28.681.163ZM14.349,6.732a.735.735,0,0,1-1.462,0V3.77a.735.735,0,0,1,1.462,0Z" transform="translate(-9.328 -0.163)"/><path class="a" d="M9.329,41.221a2.032,2.032,0,0,0,2.108,1.946H28.683a2.031,2.031,0,0,0,2.107-1.946V24.593H9.329Zm3.558-12.147a.812.812,0,0,1,.731-.874.812.812,0,0,1,.731.874V33a.812.812,0,0,1-.731.874A.812.812,0,0,1,12.887,33Z" transform="translate(-9.329 -13.031)"/></svg>